<svg width="1132.24" height="232.85333" xmlns="http://www.w3.org/2000/svg">
 <metadata id="metadata8">image/svg+xml</metadata>

 <g>
  <title>background</title>
  <rect fill="none" id="canvas_background" height="402" width="582" y="-1" x="-1"/>
 </g>
 <g>
  <title>Layer 1</title>
  <path fill="#47a138" fill-rule="nonzero" d="m102.539599,113.551198c0,-45.437866 22.175466,-84.760532 88.157732,-84.760532c0,45.536 -29.953333,84.760532 -88.157732,84.760532" id="path14"/>
  <path fill="#47a138" fill-rule="nonzero" d="m208.257331,232.85333c12.358667,0 21.857333,-1.758853 31.613333,-5.34792c0,-35.959946 -21.452,-61.656213 -59.343999,-80.171813c-28.997333,-14.542267 -64.687599,-22.0704 -97.237066,-22.0704c14.282267,-42.868533 3.871867,-96.060532 -9.969333,-125.259199c-15.334267,30.589333 -24.905733,83.031999 -10.181733,125.698265c-28.914,2.1084 -51.843226,14.7032 -61.544266,31.310933c-0.732808,1.266667 -2.200517,3.966667 -1.322392,4.428133c0.691147,0.3708 1.809899,-0.759867 2.501045,-1.390667c10.447387,-9.671867 24.281213,-14.383733 37.56308,-14.383733c30.695733,0 52.365599,25.4728 67.676533,40.776c32.906133,32.902533 65.068799,46.478629 100.244799,46.4104" id="path16"/>
  <path fill="#231f20" fill-rule="nonzero" d="m335.051997,63.975998l-16,8.2c-0.798667,0.4 -1.6,1 -2.4,1c-0.6,0 -1.2,-0.4 -1.6,-1.4c-3.598667,-8.598667 -8.798667,-11.798667 -14.198667,-11.798667l-13.2,0c-7.798667,0 -14.398667,6.598667 -14.398667,14.398667l0,59.197066c0,7.8 6.6,14.4 14.398667,14.4l9.8,0c8,0 14.198667,-6.4 14.198667,-14.4l0,-9.398933c0,-1.4 -0.6,-2 -2,-2l-18.798666,0c-1.4,0 -2,-0.600533 -2,-2l0,-16.999466c0,-1.4 0.6,-2 2,-2l41.798666,0c1.4,0 1.998667,0.6 1.998667,2l0,30.3984c0,20.799066 -14.598667,35.399066 -37.197333,35.399066l-9.8,0c-22.798666,0 -37.198666,-14.6 -37.198666,-35.399066l0,-59.197066c0,-20.798666 14.4,-35.398666 37.198666,-35.398666l13.2,0c16.598666,0 25.598666,6.8 31.598666,16.2c1.8,3 3.8,6.198667 3.8,7.398667c0,0.601333 -0.4,1 -1.2,1.4" id="path18"/>
  <path fill="#231f20" fill-rule="nonzero" d="m413.050662,127.773598c0,-7.999467 -6.4,-14.199467 -14.4,-14.199467l-21.998666,0c-1.398667,0 -2,0.600533 -2,2l0,28.398933c0,1.4 0.601333,2 2,2l21.998666,0c7.8,0 14.4,-6.2 14.4,-14.399467l0,-3.8zm0,-51.397599c0,-7.8 -6.6,-14.398667 -14.4,-14.398667l-21.998666,0c-1.398667,0 -2,0.598667 -2,1.998667l0,26.598666c0,1.4 0.601333,2 2,2l21.998666,0c7.8,0 14.4,-6.6 14.4,-14.398667l0,-1.8zm-14.4,90.596132l-44.997333,0c-1.398667,0 -2,-0.6 -2,-2l0,-121.994799c0,-1.4 0.601333,-2 2,-2l44.997333,0c22.8,0 37.2,14.6 37.2,37.198666l0,2c0,7.4 -4.8,15.998667 -10.6,21.598666c-0.601333,0.4 -0.8,1 -0.8,1.4c0,0.400533 0.198667,1 0.8,1.399467c5.8,5.600533 10.6,15.2 10.6,22.6l0,2.998933c0,22.6 -14.4,36.799066 -37.2,36.799066" id="path20"/>
  <path fill="#231f20" fill-rule="nonzero" d="m475.851995,166.972131l-18.998666,0c-1.4,0 -2,-0.6 -2,-2l0,-121.994799c0,-1.4 0.6,-2 2,-2l18.998666,0c1.4,0 2,0.6 2,2l0,121.994799c0,1.4 -0.6,2 -2,2" id="path22"/>
  <path fill="#231f20" fill-rule="nonzero" d="m575.647994,61.977332l-47.597333,0c-1.4,0 -2,0.598667 -2,1.998667l0,26.598666c0,1.4 0.6,2 2,2l38.998666,0c1.4,0 2,0.6 2,2l0,16.999466c0,1.4 -0.6,2 -2,2l-38.998666,0c-1.4,0 -2,0.600533 -2,2l0,49.398c0,1.4 -0.6,2 -2,2l-18.998666,0c-1.4,0 -2,-0.6 -2,-2l0,-121.994799c0,-1.4 0.6,-2 2,-2l70.595999,0c1.4,0 2,0.6 2,2l0,17c0,1.398667 -0.6,2 -2,2" id="path24"/>
  <path fill="none" stroke="#231f20" stroke-width="10" stroke-miterlimit="10" d="m615.791994,18.646665l0,167.110798" id="path26"/>
  <text xml:space="preserve" text-anchor="start" font-family="Arvo, sans-serif" font-size="63" id="svg_3" y="130.827461" x="669.619995" fill-opacity="null" stroke-opacity="null" stroke-width="0" stroke="#000" fill="#000000">Analytics Blog</text>
 </g>
</svg>